<?xml version="1.0" encoding="UTF-8"?>
<svg id="Layer_1" data-name="Layer 1" xmlns="http://www.w3.org/2000/svg" viewBox="0 0 17.72 6.99">
  <defs>
    <style>
      .cls-1 {
        fill: #fff;
      }

      .cls-2 {
        fill: #ffc613;
      }

      .cls-3 {
        fill: #0c0c0c;
      }
    </style>
  </defs>
  <rect class="cls-2" width="17.72" height="6.99"/>
  <path class="cls-1" d="M16.78,3.11s.02.05,0,.07l-1.01,1.01-.28.28c-.18.18-.41.27-.66.27h0c-.25,0-.49-.1-.66-.27l-.53-.53h1.38s.22-.22.22-.22c.02-.02.02-.05,0-.07l-.22-.22h-1.81s-.08-.03-.08-.08v-.43s.03-.08.08-.08h1.81s.22-.22.22-.22c.02-.02.02-.05,0-.07l-.22-.22h-1.38s.53-.53.53-.53c.18-.18.41-.27.66-.27h0c.25,0,.49.1.66.27l.28.28,1.01,1.01Z"/>
  <path class="cls-3" d="M4.18,2.99c.11.14.16.32.16.53,0,.3-.12.52-.35.68-.23.16-.57.24-1.01.24h-1.38V1.06h1.28c.41,0,.73.08.95.24.22.16.33.37.33.64,0,.16-.04.31-.12.44-.08.13-.19.23-.33.3.19.06.34.16.45.31ZM2.39,1.65v.8h.41c.19,0,.34-.03.44-.1.1-.07.15-.17.15-.3s-.05-.23-.15-.3c-.1-.07-.25-.1-.44-.1h-.41ZM3.4,3.75c.1-.07.16-.17.16-.31,0-.28-.21-.42-.62-.42h-.54v.84h.54c.21,0,.36-.03.47-.1Z"/>
  <path class="cls-3" d="M11.8,3.42l-.36.36v.66h-.75V1.06h.39c.2,0,.36.16.36.36v1.46l1.1-1.04h.9l-1.09,1.11,1.18,1.49h-.91l-.82-1.02Z"/>
  <path class="cls-3" d="M5.61,1.42v3.02h-.75V1.06h.39c.2,0,.36.16.36.36Z"/>
  <path class="cls-3" d="M6.93,2.2v2.24h-.75V1.84h.39c.2,0,.36.16.36.36Z"/>
  <path class="cls-1" d="M6.94,1.19c-.02.2-.29.45-.37.52-.01.01-.03.01-.05,0-.08-.07-.35-.32-.37-.52-.02-.19.14-.37.39-.37.25,0,.41.18.39.37Z"/>
  <path class="cls-3" d="M10.14,3.16v1.28h-.76v-1.28c0-.31-.25-.57-.56-.57s-.58.26-.58.58v1.27s-.76,0-.76,0v-1.28c0-.53.31-.98.76-1.2.17-.08.37-.13.57-.13s.4.05.57.13c.45.21.76.67.76,1.2Z"/>
  <g>
    <path class="cls-3" d="M1.49,6.15l.17-1.02h.66l-.02.13h-.51l-.05.31h.47l-.02.13h-.47l-.07.44h-.15Z"/>
    <path class="cls-3" d="M2.28,6.15l.54-1.02h.19l.2,1.02h-.16l-.1-.57s-.02-.1-.03-.16c0-.06-.02-.13-.03-.22h.04c-.04.09-.07.16-.1.22-.03.06-.05.11-.08.16l-.3.57h-.17ZM2.53,5.89l.02-.13h.52l-.02.13h-.52Z"/>
    <path class="cls-3" d="M3.86,6.17c-.08,0-.15-.01-.2-.04-.06-.03-.1-.07-.12-.12s-.03-.11-.02-.18h.15s0,.08.01.11c.01.03.04.05.07.07.03.02.07.02.12.02s.09,0,.13-.02c.04-.01.07-.03.09-.06.02-.03.04-.05.04-.09,0-.03,0-.05,0-.07-.01-.02-.03-.04-.05-.05s-.06-.03-.1-.04l-.11-.03c-.09-.02-.16-.06-.2-.1s-.06-.1-.04-.18c0-.06.03-.11.07-.15.04-.04.08-.08.14-.1.06-.02.12-.04.19-.04s.14.01.19.04.09.06.11.11c.02.05.03.1.02.17h-.15c0-.06,0-.1-.04-.13-.03-.03-.08-.05-.14-.05-.04,0-.08,0-.11.02-.03.01-.06.03-.08.06-.02.02-.04.05-.04.08,0,.03,0,.05.01.07.01.02.03.03.06.05.03.01.06.02.1.03l.1.03s.09.03.12.04c.03.02.06.04.09.06.02.02.04.05.05.08,0,.03,0,.07,0,.11,0,.06-.03.11-.07.16s-.09.08-.15.1-.13.04-.21.04Z"/>
    <path class="cls-3" d="M4.66,5.27l.02-.13h.8l-.02.13h-.32l-.15.89h-.15l.15-.89h-.32Z"/>
    <path class="cls-3" d="M5.65,6.15l.17-1.02h.68l-.02.13h-.52l-.05.3h.49l-.02.13h-.49l-.05.32h.52l-.02.13h-.68Z"/>
    <path class="cls-3" d="M6.67,6.15l.17-1.02h.38c.07,0,.14.01.19.04s.08.06.11.11c.02.05.03.1.02.17-.01.06-.03.12-.07.17s-.09.08-.14.11c-.06.03-.13.04-.2.04h-.29l.02-.13h.29s.08,0,.12-.02.06-.04.08-.07c.02-.03.04-.06.04-.1,0-.06,0-.1-.03-.14s-.08-.05-.15-.05h-.22l-.15.89h-.15ZM7.27,6.15l-.17-.46h.16l.17.46h-.16Z"/>
    <path class="cls-3" d="M8.4,5.27l.02-.13h.8l-.02.13h-.32l-.15.89h-.15l.15-.89h-.32Z"/>
    <path class="cls-3" d="M9.39,6.15l.17-1.02h.15l-.07.43h.51l.07-.43h.15l-.17,1.02h-.15l.08-.46h-.51l-.08.46h-.15Z"/>
    <path class="cls-3" d="M10.51,6.15l.54-1.02h.19l.2,1.02h-.16l-.1-.57s-.02-.1-.03-.16c0-.06-.02-.13-.03-.22h.04c-.04.09-.07.16-.1.22-.03.06-.05.11-.08.16l-.3.57h-.17ZM10.76,5.89l.02-.13h.52l-.02.13h-.52Z"/>
    <path class="cls-3" d="M11.75,6.15l.17-1.02h.17l.29.62s.02.04.03.06c.01.03.02.05.03.08.01.03.02.06.03.09l-.02.03s0-.06.01-.1c0-.04,0-.07.01-.1s0-.06.01-.08l.1-.6h.15l-.17,1.02h-.16l-.26-.55s-.02-.04-.03-.07c-.01-.03-.03-.06-.04-.1-.02-.04-.03-.08-.05-.13l.02-.02c0,.05-.01.1-.02.14,0,.04-.01.08-.02.11,0,.03,0,.06-.01.07l-.09.55h-.15Z"/>
    <path class="cls-3" d="M13.8,6.15l.07-.41-.28-.61h.17l.14.32s.03.06.04.1c.01.03.02.06.04.1h-.05s.05-.07.07-.1c.02-.03.05-.06.07-.09l.25-.32h.19l-.48.61-.07.41h-.15Z"/>
    <path class="cls-3" d="M15,6.17c-.08,0-.15-.02-.21-.05-.06-.03-.11-.08-.14-.15-.03-.06-.05-.14-.05-.22s.01-.16.04-.24c.03-.08.06-.14.11-.2.05-.06.11-.11.18-.14.07-.03.14-.05.23-.05s.15.02.21.05c.06.03.11.08.14.15.03.06.05.14.05.22s-.01.16-.04.24c-.03.08-.06.14-.11.2-.05.06-.11.11-.18.14-.07.03-.14.05-.23.05ZM15.01,6.03c.06,0,.12-.01.17-.04.05-.03.09-.07.13-.11.03-.05.06-.1.08-.16.02-.06.03-.12.03-.18s-.01-.11-.03-.15c-.02-.04-.05-.07-.09-.09-.04-.02-.08-.03-.13-.03-.06,0-.12.01-.17.04-.05.03-.09.07-.12.11-.03.05-.06.1-.08.16-.02.06-.03.12-.03.18s.01.11.03.15c.02.04.05.07.09.09.04.02.08.03.13.03Z"/>
    <path class="cls-3" d="M16.23,6.17c-.08,0-.15-.02-.21-.05s-.1-.08-.12-.13c-.03-.06-.03-.12-.02-.19l.11-.67h.15l-.11.66s0,.09,0,.12.04.06.07.08c.03.02.08.03.13.03.05,0,.1-.01.14-.03.04-.02.08-.05.11-.09.03-.04.05-.08.05-.13l.11-.65h.15l-.11.68c-.01.07-.04.13-.08.19-.04.05-.09.1-.16.13-.06.03-.14.05-.22.05Z"/>
  </g>
</svg>